<?xml version="1.0" standalone="no"?>
<!DOCTYPE svg PUBLIC "-//W3C//DTD SVG 20010904//EN"
 "http://www.w3.org/TR/2001/REC-SVG-20010904/DTD/svg10.dtd">
<svg version="1.0" xmlns="http://www.w3.org/2000/svg"
 width="500.000000pt" height="500.000000pt" viewBox="0 0 500.000000 500.000000"
 preserveAspectRatio="xMidYMid meet">

<g transform="translate(0.000000,500.000000) scale(0.100000,-0.100000)"
fill="#457d58" stroke="none">
<path d="M780 2690 l0 -1610 494 0 493 0 6 103 c12 236 116 387 453 658 214
172 254 220 254 305 0 110 -151 220 -430 315 -69 23 -130 47 -136 53 -7 6 -79
138 -161 293 l-150 283 -148 -265 c-82 -146 -151 -265 -154 -265 -3 0 -32 41
-64 91 l-59 92 -134 -224 -134 -224 0 943 0 942 1590 0 1590 0 0 -975 c0 -536
-2 -975 -4 -975 -3 0 -124 151 -271 335 -146 184 -270 337 -275 340 -4 3 -55
-21 -112 -54 -56 -32 -106 -57 -110 -54 -4 2 -129 161 -279 354 -149 192 -275
349 -280 347 -11 -4 -829 -951 -825 -955 1 -2 72 -21 157 -42 412 -104 686
-263 715 -416 10 -57 -27 -109 -203 -280 -90 -87 -185 -186 -210 -220 -97
-128 -140 -266 -128 -418 l7 -87 969 0 969 0 0 1610 0 1610 -1715 0 -1715 0 0
-1610z m2234 223 c113 -172 207 -313 210 -313 3 0 64 28 136 61 111 52 134 59
145 48 47 -51 345 -422 342 -426 -3 -2 -86 46 -186 107 -100 60 -185 111 -190
113 -4 1 -75 -56 -156 -128 -173 -151 -195 -169 -200 -163 -2 2 -36 138 -74
302 -38 164 -72 300 -74 302 -2 3 -26 -13 -53 -34 -27 -21 -66 -51 -86 -66
l-38 -28 0 278 c0 164 4 274 9 269 5 -6 101 -151 215 -322z m-1592 -651 c-48
-127 -89 -232 -92 -231 -4 0 -88 114 -111 151 -4 6 -41 -12 -85 -39 -117 -73
-108 -69 -92 -41 37 68 164 267 170 268 4 0 30 -34 59 -76 46 -69 52 -74 63
-57 7 10 48 73 91 141 43 68 79 121 81 119 2 -2 -36 -107 -84 -235z"/>
</g>
</svg>
