<?xml version="1.0" standalone="no"?>
<!DOCTYPE svg PUBLIC "-//W3C//DTD SVG 20010904//EN"
 "http://www.w3.org/TR/2001/REC-SVG-20010904/DTD/svg10.dtd">
<svg version="1.0" xmlns="http://www.w3.org/2000/svg"
 width="500.000000pt" height="500.000000pt" viewBox="0 0 500.000000 500.000000"
 preserveAspectRatio="xMidYMid meet">

<g transform="translate(0.000000,500.000000) scale(0.100000,-0.100000)"
fill="#F7F7F7" stroke="none">
<path d="M827 4280 l-27 -5 0 -1583 c0 -871 2 -1587 5 -1593 4 -5 194 -9 479
-9 l473 0 6 93 c8 133 54 250 142 365 69 91 167 180 366 337 88 69 177 159
190 192 42 111 -29 208 -220 299 -104 50 -167 74 -256 100 -74 20 -77 23 -110
87 -15 29 -54 102 -86 162 -32 61 -84 161 -117 223 -33 63 -63 114 -68 114 -7
0 -43 -62 -163 -277 -15 -27 -52 -92 -81 -143 -61 -108 -58 -108 -131 8 -24
39 -46 70 -49 70 -6 0 -45 -63 -42 -67 1 -2 -5 -11 -14 -20 -9 -10 -58 -89
-111 -176 -52 -86 -99 -155 -104 -151 -5 3 -9 382 -9 940 0 740 3 934 13 934
6 0 720 3 1585 6 1215 4 1576 3 1588 -6 12 -11 14 -149 14 -981 0 -778 -3
-969 -13 -969 -10 0 -76 77 -217 254 -211 266 -333 416 -340 416 -4 0 -22 -10
-41 -22 -19 -13 -65 -39 -102 -58 l-68 -35 -27 31 c-15 18 -74 93 -132 169
-58 75 -129 166 -158 203 -60 76 -151 194 -200 258 -18 24 -36 44 -41 44 -5 0
-19 -12 -30 -27 -12 -14 -45 -53 -74 -87 -28 -33 -87 -101 -130 -150 -43 -50
-102 -118 -131 -151 -29 -33 -144 -165 -255 -294 l-203 -234 131 -33 c283 -71
495 -160 624 -263 82 -65 117 -121 117 -186 0 -54 -43 -114 -155 -217 -196
-181 -262 -257 -323 -375 -53 -104 -72 -217 -56 -337 l7 -46 956 2 956 3 0
1595 0 1595 -1670 0 c-919 0 -1683 -2 -1698 -5z m2049 -1147 c238 -364 346
-523 356 -523 6 0 31 11 57 24 132 68 199 94 214 83 8 -7 45 -50 83 -97 38
-47 103 -125 144 -175 105 -125 134 -165 127 -172 -6 -6 -22 3 -256 146 -132
80 -135 81 -155 63 -12 -10 -75 -65 -141 -123 -66 -57 -132 -115 -148 -129
-51 -45 -39 -76 -143 370 -20 85 -39 168 -43 183 l-6 29 -80 -61 c-43 -34 -85
-61 -92 -61 -10 0 -13 56 -13 273 0 240 3 287 16 287 2 0 38 -53 80 -117z
m-1370 -653 c-3 -17 -17 -61 -31 -98 -48 -123 -53 -137 -75 -197 -12 -33 -26
-69 -31 -80 -5 -11 -13 -32 -19 -47 -5 -16 -14 -28 -19 -28 -7 0 -83 97 -117
148 -3 4 -40 -17 -114 -63 -58 -37 -70 -41 -70 -25 0 11 155 258 175 279 11
12 21 3 60 -58 25 -39 50 -71 55 -71 5 0 17 12 27 28 88 141 155 242 161 242
2 0 2 -14 -2 -30z"/>
</g>
</svg>
